REM DIRINDEX 1\6,1\2\7,1\2\8,1\2\9,1\3\10,1\3\11,1\4\12,1\4\13,1\4\14,1\5\15,1\5\16,1\5\17
REM DIRNAME cjc041,folder01,folder02,folder03,folder04,folder05,folder06,folder07,folder08,folder09,folder10,folder11,folder12,folder13,folder14,folder15,folder16
TITLE ""
FILE "3Q_j_0933-0948.mp3" MP3
  TRACK 01 AUDIO
    TITLE "12:cjc041_0098"
    INDEX 01 00:00:00
  TRACK 02 AUDIO
    TITLE "0:"
    INDEX 01 00:01:44
  TRACK 03 AUDIO
    TITLE "13:cjc041_0099"
    INDEX 01 00:02:18
  TRACK 04 AUDIO
    TITLE "0:"
    INDEX 01 00:03:41
  TRACK 05 AUDIO
    TITLE "14:cjc041_0100"
    INDEX 01 00:04:17
  TRACK 06 AUDIO
    TITLE "0:"
    INDEX 01 00:08:62
  TRACK 07 AUDIO
    TITLE "12:cjc041_0101"
    INDEX 01 00:09:38
  TRACK 08 AUDIO
    TITLE "0:"
    INDEX 01 00:11:11
  TRACK 09 AUDIO
    TITLE "13:cjc041_0102"
    INDEX 01 00:11:64
  TRACK 10 AUDIO
    TITLE "0:"
    INDEX 01 00:13:12
  TRACK 11 AUDIO
    TITLE "14:cjc041_0103"
    INDEX 01 00:13:63
  TRACK 12 AUDIO
    TITLE "0:"
    INDEX 01 00:16:24
  TRACK 13 AUDIO
    TITLE "12:cjc041_0104"
    INDEX 01 00:16:71
  TRACK 14 AUDIO
    TITLE "0:"
    INDEX 01 00:18:74
  TRACK 15 AUDIO
    TITLE "13:cjc041_0105"
    INDEX 01 00:19:52
  TRACK 16 AUDIO
    TITLE "0:"
    INDEX 01 00:21:58
  TRACK 17 AUDIO
    TITLE "14:cjc041_0106"
    INDEX 01 00:22:36
  TRACK 18 AUDIO
    TITLE "0:"
    INDEX 01 00:25:68
  TRACK 19 AUDIO
    TITLE "12:cjc041_0107"
    INDEX 01 00:26:56
  TRACK 20 AUDIO
    TITLE "0:"
    INDEX 01 00:28:35
  TRACK 21 AUDIO
    TITLE "13:cjc041_0108"
    INDEX 01 00:29:17
  TRACK 22 AUDIO
    TITLE "0:"
    INDEX 01 00:31:08
  TRACK 23 AUDIO
    TITLE "14:cjc041_0109"
    INDEX 01 00:31:55
  TRACK 24 AUDIO
    TITLE "0:"
    INDEX 01 00:35:23
  TRACK 25 AUDIO
    TITLE "12:cjc041_0110"
    INDEX 01 00:36:01
  TRACK 26 AUDIO
    TITLE "0:"
    INDEX 01 00:37:32
  TRACK 27 AUDIO
    TITLE "13:cjc041_0111"
    INDEX 01 00:38:06
  TRACK 28 AUDIO
    TITLE "0:"
    INDEX 01 00:39:47
  TRACK 29 AUDIO
    TITLE "14:cjc041_0112"
    INDEX 01 00:40:26
  TRACK 30 AUDIO
    TITLE "0:"
    INDEX 01 00:45:24
  TRACK 31 AUDIO
    TITLE "12:cjc041_0113"
    INDEX 01 00:46:04
  TRACK 32 AUDIO
    TITLE "0:"
    INDEX 01 00:47:62
  TRACK 33 AUDIO
    TITLE "13:cjc041_0114"
    INDEX 01 00:48:36
  TRACK 34 AUDIO
    TITLE "0:"
    INDEX 01 00:51:18
  TRACK 35 AUDIO
    TITLE "14:cjc041_0115"
    INDEX 01 00:51:71
  TRACK 36 AUDIO
    TITLE "0:"
    INDEX 01 00:54:30
  TRACK 37 AUDIO
    TITLE "12:cjc041_0116"
    INDEX 01 00:55:08
  TRACK 38 AUDIO
    TITLE "0:"
    INDEX 01 00:56:72
  TRACK 39 AUDIO
    TITLE "13:cjc041_0117"
    INDEX 01 00:57:54
  TRACK 40 AUDIO
    TITLE "0:"
    INDEX 01 01:00:21
  TRACK 41 AUDIO
    TITLE "14:cjc041_0118"
    INDEX 01 01:00:74
  TRACK 42 AUDIO
    TITLE "0:"
    INDEX 01 01:04:05
  TRACK 43 AUDIO
    TITLE "12:cjc041_0119"
    INDEX 01 01:04:62
  TRACK 44 AUDIO
    TITLE "0:"
    INDEX 01 01:06:69
  TRACK 45 AUDIO
    TITLE "13:cjc041_0120"
    INDEX 01 01:07:43
  TRACK 46 AUDIO
    TITLE "0:"
    INDEX 01 01:10:18
  TRACK 47 AUDIO
    TITLE "14:cjc041_0121"
    INDEX 01 01:10:71
  TRACK 48 AUDIO
    TITLE "0:"
    INDEX 01 01:13:32
  TRACK 49 AUDIO
    TITLE "12:cjc041_0122"
    INDEX 01 01:14:23
  TRACK 50 AUDIO
    TITLE "0:"
    INDEX 01 01:16:26
  TRACK 51 AUDIO
    TITLE "13:cjc041_0123"
    INDEX 01 01:17:02
  TRACK 52 AUDIO
    TITLE "0:"
    INDEX 01 01:18:74
  TRACK 53 AUDIO
    TITLE "14:cjc041_0124"
    INDEX 01 01:19:56
  TRACK 54 AUDIO
    TITLE "0:"
    INDEX 01 01:22:62
  TRACK 55 AUDIO
    TITLE "12:cjc041_0125"
    INDEX 01 01:23:48
  TRACK 56 AUDIO
    TITLE "0:"
    INDEX 01 01:25:41
  TRACK 57 AUDIO
    TITLE "13:cjc041_0126"
    INDEX 01 01:26:17
  TRACK 58 AUDIO
    TITLE "0:"
    INDEX 01 01:28:47
  TRACK 59 AUDIO
    TITLE "14:cjc041_0127"
    INDEX 01 01:29:29
  TRACK 60 AUDIO
    TITLE "0:"
    INDEX 01 01:33:05
  TRACK 61 AUDIO
    TITLE "12:cjc041_0128"
    INDEX 01 01:33:62
  TRACK 62 AUDIO
    TITLE "0:"
    INDEX 01 01:35:69
  TRACK 63 AUDIO
    TITLE "13:cjc041_0129"
    INDEX 01 01:36:48
  TRACK 64 AUDIO
    TITLE "0:"
    INDEX 01 01:38:71
  TRACK 65 AUDIO
    TITLE "14:cjc041_0130"
    INDEX 01 01:39:51
  TRACK 66 AUDIO
    TITLE "0:"
    INDEX 01 01:43:68
  TRACK 67 AUDIO
    TITLE "12:cjc041_0131"
    INDEX 01 01:44:50
  TRACK 68 AUDIO
    TITLE "0:"
    INDEX 01 01:47:15
  TRACK 69 AUDIO
    TITLE "13:cjc041_0132"
    INDEX 01 01:47:68
  TRACK 70 AUDIO
    TITLE "0:"
    INDEX 01 01:50:00
  TRACK 71 AUDIO
    TITLE "14:cjc041_0133"
    INDEX 01 01:50:60
  TRACK 72 AUDIO
    TITLE "0:"
    INDEX 01 01:54:74
  TRACK 73 AUDIO
    TITLE "12:cjc041_0134"
    INDEX 01 01:55:58
  TRACK 74 AUDIO
    TITLE "0:"
    INDEX 01 01:58:11
  TRACK 75 AUDIO
    TITLE "13:cjc041_0135"
    INDEX 01 01:58:68
  TRACK 76 AUDIO
    TITLE "0:"
    INDEX 01 02:01:11
  TRACK 77 AUDIO
    TITLE "14:cjc041_0136"
    INDEX 01 02:01:62
  TRACK 78 AUDIO
    TITLE "0:"
    INDEX 01 02:04:74
  TRACK 79 AUDIO
    TITLE "12:cjc041_0137"
    INDEX 01 02:05:52
  TRACK 80 AUDIO
    TITLE "0:"
    INDEX 01 02:07:12
  TRACK 81 AUDIO
    TITLE "13:cjc041_0138"
    INDEX 01 02:07:67
  TRACK 82 AUDIO
    TITLE "0:"
    INDEX 01 02:11:39
  TRACK 83 AUDIO
    TITLE "14:cjc041_0139"
    INDEX 01 02:12:13
  TRACK 84 AUDIO
    TITLE "0:"
    INDEX 01 02:17:20
  TRACK 85 AUDIO
    TITLE "12:cjc041_0140"
    INDEX 01 02:18:00
  TRACK 86 AUDIO
    TITLE "0:"
    INDEX 01 02:19:62
  TRACK 87 AUDIO
    TITLE "13:cjc041_0141"
    INDEX 01 02:20:48
  TRACK 88 AUDIO
    TITLE "0:"
    INDEX 01 02:22:62
  TRACK 89 AUDIO
    TITLE "14:cjc041_0142"
    INDEX 01 02:23:40
  TRACK 90 AUDIO
    TITLE "0:"
    INDEX 01 02:27:20
  TRACK 91 AUDIO
    TITLE "12:cjc041_0143"
    INDEX 01 02:28:00
  TRACK 92 AUDIO
    TITLE "0:"
    INDEX 01 02:29:21
  TRACK 93 AUDIO
    TITLE "13:cjc041_0144"
    INDEX 01 02:30:03
  TRACK 94 AUDIO
    TITLE "0:"
    INDEX 01 02:32:41
  TRACK 95 AUDIO
    TITLE "14:cjc041_0145"
    INDEX 01 02:33:19
  TRACK 96 AUDIO
    TITLE "0:"
    INDEX 01 02:36:45
